#!OML:ASF H:\IndianDance\Patient Classification 1\Patient 1\Session 1\dancer.ASF
:FULLY-SPECIFIED
:DEGREES
2234
root 3.1745 15.3493 6.84414 -175.552 10.831 -177.876
lowerback 4.74485 -1.1506 -4.68448
upperback -6.43815 -1.78723 -5.63566
thorax -9.55526 -0.498958 -3.21441
lowerneck -18.6199 5.16195 8.44882
upperneck 24.9104 3.68145 8.79834
head 11.2869 4.10653 2.49222
rclavicle 7.55382e-015 3.81667e-014
rhumerus 6.09788 -8.63878 8.67204
rradius 27.9124
rwrist -17.3646
rhand 28.1035 -19.5877
rfingers 7.12502
rthumb 51.9941 -39.6968
lclavicle 7.55382e-015 3.81667e-014
lhumerus 13.8716 -55.4226 54.4154
lradius 89.9233
lwrist 38.4818
lhand -48.0025 12.9451
lfingers 7.12502
lthumb -20.6708 401.864
rfemur -17.7693 -10.1213 31.5409
rtibia 50.1193
rfoot -5.401 15.9161
rtoes 24.1519
lfemur -34.7096 24.8908 -13.881
ltibia 61.7608
lfoot 10.5111 -14.9942
ltoes -9.05265
2235
root 3.18265 15.3542 6.8022 -175.613 11.4733 -178.307
lowerback 4.82791 -1.11463 -5.08473
upperback -6.47193 -1.77422 -5.75565
thorax -9.63688 -0.459382 -3.12546
lowerneck -18.6437 5.15189 8.52558
upperneck 24.8463 3.62621 8.83964
head 11.2709 4.08937 2.4847
rclavicle -1.70955e-014 2.8625e-014
rhumerus 6.18071 -8.69914 8.53378
rradius 27.9258
rwrist -17.4454
rhand 28.1327 -19.573
rfingers 7.12502
rthumb 52.0206 -39.6664
lclavicle -1.70955e-014 2.8625e-014
lhumerus 13.9682 -55.5296 54.2516
lradius 90.4285
lwrist 38.8103
lhand -47.5556 13.0207
lfingers 7.12502
lthumb -20.2413 401.986
rfemur -18.8952 -9.99124 30.8327
rtibia 52.0616
rfoot -4.39379 15.636
rtoes 20.592
lfemur -34.044 24.6666 -14.0578
ltibia 61.2681
lfoot 10.485 -15.1786
ltoes -9.49679
2236
root 3.19167 15.356 6.75989 -175.698 12.1472 -178.801
lowerback 4.87996 -1.07191 -5.57428
upperback -6.47996 -1.75511 -5.89022
thorax -9.67013 -0.410418 -3.0029
lowerneck -18.8603 5.19614 8.47184
upperneck 24.8522 3.6345 8.94088
head 11.3128 4.09904 2.54038
rclavicle 6.75868e-015 3.18055e-015
rhumerus 6.22414 -8.90503 8.41616
rradius 27.9534
rwrist -17.3968
rhand 28.2674 -19.5307
rfingers 7.12502
rthumb 52.1427 -39.5512
lclavicle 6.75868e-015 3.18055e-015
lhumerus 14.0633 -55.5596 54.0668
lradius 90.9948
lwrist 39.2441
lhand -46.9939 13.1042
lfingers 7.12502
lthumb -19.7014 402.126
rfemur -20.0067 -9.83777 30.0691
rtibia 53.9193
rfoot -4.54714 14.8796
rtoes 12.316
lfemur -33.4334 24.503 -14.3092
ltibia 60.8794
lfoot 10.4769 -15.2677
ltoes -9.72247
2237
root 3.19986 15.3547 6.71949 -175.804 12.86 -179.301
lowerback 4.96659 -1.05661 -6.01935
upperback -6.50386 -1.77485 -6.01415
thorax -9.74357 -0.38278 -2.89003
lowerneck -19.1225 5.28448 8.15715
upperneck 24.9098 3.7399 9.1778
head 11.3701 4.147 2.70617
rclavicle 1.98785e-015 0
rhumerus 6.43598 -8.02561 8.70958
rradius 27.9719
rwrist -18.5223
rhand 28.0729 -19.6344
rfingers 7.12502
rthumb 51.9663 -39.76
lclavicle 1.98785e-015 0
lhumerus 14.0483 -55.4801 53.8939
lradius 91.6426
lwrist 39.8537
lhand -46.2943 13.0804
lfingers 7.12502
lthumb -19.0287 402.17
rfemur -21.0955 -9.57792 29.3088
rtibia 55.6266
rfoot -5.38409 13.8105
rtoes 3.24791
lfemur -32.8672 24.562 -14.6108
ltibia 60.5871
lfoot 10.3165 -15.3377
ltoes -10.0282
2238
root 3.20847 15.3545 6.67734 -175.915 13.6219 -179.694
lowerback 5.0616 -0.985375 -6.27565
upperback -6.52274 -1.70771 -6.16226
thorax -9.82197 -0.32897 -2.92017
lowerneck -19.4569 5.34253 7.8127
upperneck 24.9758 3.79491 9.44901
head 11.4435 4.17617 2.88615
rclavicle 3.45885e-014 -3.18055e-015
rhumerus 6.48525 -7.96426 8.71525
rradius 28.0105
rwrist -18.6895
rhand 28.1209 -19.6462
rfingers 7.12502
rthumb 52.0098 -39.746
lclavicle 3.45885e-014 -3.18055e-015
lhumerus 14.1342 -55.4767 53.6376
lradius 92.2776
lwrist 40.4917
lhand -45.5245 13.2782
lfingers 7.12502
lthumb -18.2883 402.439
rfemur -22.1362 -9.28684 28.6663
rtibia 57.1235
rfoot -7.42823 12.3135
rtoes -2.87646
lfemur -32.2819 24.7381 -14.7934
ltibia 60.3387
lfoot 10.3213 -15.1455
ltoes -8.76407
2239
root 3.2236 15.3494 6.63706 -176.001 14.3651 -179.801
lowerback 5.21667 -0.882773 -6.32795
upperback -6.53914 -1.59667 -6.22375
thorax -9.93483 -0.272071 -2.97524
lowerneck -19.4308 5.3788 7.88873
upperneck 24.7751 3.82023 9.44631
head 11.3645 4.17728 2.86374
rclavicle -2.42517e-014 4.77083e-014
rhumerus 6.49197 -8.23113 8.63125
rradius 28.0235
rwrist -18.4623
rhand 28.2481 -19.6332
rfingers 7.12502
rthumb 52.1252 -39.6642
lclavicle -2.42517e-014 4.77083e-014
lhumerus 14.2138 -55.5321 53.5223
lradius 92.9095
lwrist 41.1172
lhand -45.1859 13.0977
lfingers 7.12502
lthumb -17.9625 402.288
rfemur -23.1143 -8.90104 28.4238
rtibia 58.3696
rfoot -9.09936 10.9386
rtoes -3.63234
lfemur -31.7187 25.1688 -14.655
ltibia 60.1601
lfoot 10.1989 -15.2323
ltoes -8.7323
2240
root 3.23729 15.3478 6.59663 -176.089 15.1385 -180.082
lowerback 5.36372 -0.772674 -6.4652
upperback -6.55979 -1.48089 -6.28947
thorax -10.0463 -0.20547 -2.9895
lowerneck -19.2062 5.40806 8.12437
upperneck 24.4033 3.8675 9.21019
head 11.1905 4.15545 2.71463
rclavicle 1.70955e-014 5.40694e-014
rhumerus 6.57893 -8.33684 8.75067
rradius 28.0918
rwrist -18.5016
rhand 28.2506 -19.8087
rfingers 7.12502
rthumb 52.1275 -39.8383
lclavicle 1.70955e-014 5.40694e-014
lhumerus 14.3923 -55.5506 53.3758
lradius 93.5112
lwrist 41.578
lhand -44.9737 13.1363
lfingers 7.12502
lthumb -17.7584 402.345
rfemur -24.1381 -8.51104 27.9816
rtibia 59.3603
rfoot -10.2292 9.21989
rtoes -2.84164
lfemur -31.181 25.6022 -14.7481
ltibia 59.9905
lfoot 9.86124 -15.3864
ltoes -9.39399
2241
root 3.25239 15.3413 6.55807 -176.153 15.8605 -180.277
lowerback 5.53747 -0.719339 -6.5367
upperback -6.60993 -1.43965 -6.36487
thorax -10.2093 -0.178307 -3.04335
lowerneck -19.1094 5.50369 8.09038
upperneck 24.2055 4.00587 9.28306
head 11.0926 4.20659 2.75173
rclavicle -1.82882e-014 1.55847e-013
rhumerus 6.72779 -8.74656 8.55167
rradius 28.1252
rwrist -18.1989
rhand 28.2629 -19.8457
rfingers 7.12502
rthumb 52.1387 -39.8687
lclavicle -1.82882e-014 1.55847e-013
lhumerus 14.4197 -55.5457 53.2257
lradius 94.0519
lwrist 41.7811
lhand -44.5775 13.2233
lfingers 7.12502
lthumb -17.377 402.467
rfemur -25.1263 -8.13879 27.688
rtibia 60.0509
rfoot -12.0448 6.29459
rtoes -6.81566
lfemur -30.7105 26.0497 -14.7651
ltibia 59.8795
lfoot 9.24212 -15.8098
ltoes -11.7633
2242
root 3.27062 15.3313 6.51958 -176.229 16.5556 -180.415
lowerback 5.7412 -0.652021 -6.543
upperback -6.64809 -1.38003 -6.41645
thorax -10.3774 -0.148895 -3.11009
lowerneck -19.202 5.49164 7.82034
upperneck 24.1117 3.98761 9.55027
head 11.0614 4.20133 2.88748
rclavicle 6.2816e-014 -6.99722e-014
rhumerus 6.87288 -9.29816 8.35595
rradius 28.1361
rwrist -17.7173
rhand 28.3108 -19.8148
rfingers 7.12502
rthumb 52.1821 -39.8117
lclavicle 6.2816e-014 -6.99722e-014
lhumerus 14.4776 -55.527 53.1993
lradius 94.5056
lwrist 41.7824
lhand -43.4152 14.093
lfingers 7.12502
lthumb -16.2582 403.431
rfemur -26.0378 -7.69463 27.4569
rtibia 60.4239
rfoot -13.3806 3.34804
rtoes -8.74743
lfemur -30.2342 26.4812 -14.7038
ltibia 59.8117
lfoot 8.88239 -15.7357
ltoes -11.9375
2243
root 3.2897 15.3236 6.48088 -176.296 17.19 -180.583
lowerback 5.95844 -0.630137 -6.55012
upperback -6.70398 -1.38143 -6.50294
thorax -10.5757 -0.147344 -3.20814
lowerneck -18.6893 5.51878 8.60459
upperneck 23.6635 3.96783 9.20386
head 10.8313 4.18811 2.59089
rclavicle -4.17448e-014 -3.18055e-015
rhumerus 7.03205 -9.58153 8.1618
rradius 28.1799
rwrist -17.367
rhand 28.2917 -19.7363
rfingers 7.12502
rthumb 52.1647 -39.7436
lclavicle -4.17448e-014 -3.18055e-015
lhumerus 14.453 -55.4616 53.1333
lradius 94.9948
lwrist 41.8033
lhand -43.1526 14.3433
lfingers 7.12502
lthumb -16.0053 403.702
rfemur -26.9155 -7.25667 27.1754
rtibia 60.4398
rfoot -14.5487 0.455914
rtoes -8.35557
lfemur -29.8121 26.847 -14.7235
ltibia 59.7689
lfoot 8.18628 -16.0523
ltoes -13.9987
